<svg xmlns="http://www.w3.org/2000/svg" width="43" height="43" viewBox="0 0 43 43" fill="none">
  <g filter="url(#filter0_d_72_104)">
    <circle cx="19.5" cy="17.5" r="17.5" transform="rotate(-180 19.5 17.5)" fill="black"/>
  </g>
  <path d="M17.0234 26.7932L8.21468 17.5446C8.07721 17.4001 8 17.2042 8 17C8 16.7958 8.07721 16.5999 8.21468 16.4554L17.0234 7.20685C17.1626 7.07071 17.3466 6.9966 17.5368 7.00012C17.727 7.00364 17.9084 7.08453 18.0429 7.22574C18.1774 7.36694 18.2545 7.55745 18.2578 7.75711C18.2612 7.95678 18.1906 8.15002 18.0609 8.29612L10.5062 16.2293L30.2659 16.2293C30.4606 16.2293 30.6473 16.3105 30.785 16.455C30.9227 16.5996 31 16.7956 31 17C31 17.2044 30.9227 17.4004 30.785 17.545C30.6473 17.6895 30.4606 17.7707 30.2659 17.7707L10.5062 17.7707L18.0609 25.7039C18.1906 25.85 18.2612 26.0432 18.2578 26.2429C18.2545 26.4426 18.1774 26.6331 18.0429 26.7743C17.9084 26.9155 17.727 26.9964 17.5368 26.9999C17.3466 27.0034 17.1626 26.9293 17.0234 26.7932Z" fill="#FFBB00"/>
  <defs>
    <filter id="filter0_d_72_104" x="0" y="0" width="43" height="43" filterUnits="userSpaceOnUse" color-interpolation-filters="sRGB">
      <feFlood flood-opacity="0" result="BackgroundImageFix"/>
      <feColorMatrix in="SourceAlpha" type="matrix" values="0 0 0 0 0 0 0 0 0 0 0 0 0 0 0 0 0 0 127 0" result="hardAlpha"/>
      <feOffset dx="2" dy="4"/>
      <feGaussianBlur stdDeviation="2"/>
      <feComposite in2="hardAlpha" operator="out"/>
      <feColorMatrix type="matrix" values="0 0 0 0 0 0 0 0 0 0 0 0 0 0 0 0 0 0 0.5 0"/>
      <feBlend mode="normal" in2="BackgroundImageFix" result="effect1_dropShadow_72_104"/>
      <feBlend mode="normal" in="SourceGraphic" in2="effect1_dropShadow_72_104" result="shape"/>
    </filter>
  </defs>
</svg>
