<svg xmlns="http://www.w3.org/2000/svg" width="43" height="43" viewBox="0 0 43 43" fill="none">
  <g filter="url(#filter0_d_72_103)">
    <circle cx="19.5" cy="17.5" r="17.5" fill="black"/>
  </g>
  <path d="M21.9766 8.20685L30.7853 17.4554C30.9228 17.5999 31 17.7958 31 18C31 18.2042 30.9228 18.4001 30.7853 18.5446L21.9766 27.7932C21.8374 27.9293 21.6534 28.0034 21.4632 27.9999C21.273 27.9964 21.0916 27.9155 20.9571 27.7743C20.8226 27.6331 20.7455 27.4426 20.7422 27.2429C20.7388 27.0432 20.8094 26.85 20.9391 26.7039L28.4938 18.7707H8.73406C8.53938 18.7707 8.35267 18.6895 8.215 18.545C8.07734 18.4004 8 18.2044 8 18C8 17.7956 8.07734 17.5996 8.215 17.455C8.35267 17.3105 8.53938 17.2293 8.73406 17.2293H28.4938L20.9391 9.29612C20.8094 9.15002 20.7388 8.95678 20.7422 8.75711C20.7455 8.55745 20.8226 8.36694 20.9571 8.22573C21.0916 8.08453 21.273 8.00364 21.4632 8.00012C21.6534 7.9966 21.8374 8.07071 21.9766 8.20685Z" fill="#FFBB00"/>
  <defs>
    <filter id="filter0_d_72_103" x="0" y="0" width="43" height="43" filterUnits="userSpaceOnUse" color-interpolation-filters="sRGB">
      <feFlood flood-opacity="0" result="BackgroundImageFix"/>
      <feColorMatrix in="SourceAlpha" type="matrix" values="0 0 0 0 0 0 0 0 0 0 0 0 0 0 0 0 0 0 127 0" result="hardAlpha"/>
      <feOffset dx="2" dy="4"/>
      <feGaussianBlur stdDeviation="2"/>
      <feComposite in2="hardAlpha" operator="out"/>
      <feColorMatrix type="matrix" values="0 0 0 0 0 0 0 0 0 0 0 0 0 0 0 0 0 0 0.5 0"/>
      <feBlend mode="normal" in2="BackgroundImageFix" result="effect1_dropShadow_72_103"/>
      <feBlend mode="normal" in="SourceGraphic" in2="effect1_dropShadow_72_103" result="shape"/>
    </filter>
  </defs>
</svg>
